<svg id="Capa_1" data-name="Capa 1" xmlns="http://www.w3.org/2000/svg" xmlns:xlink="http://www.w3.org/1999/xlink" viewBox="0 0 824.82 257.49"><defs><style>.cls-1{fill:url(#Degradado_sin_nombre_5);}.cls-2{fill:url(#Degradado_sin_nombre_5-2);}.cls-3{fill:url(#Degradado_sin_nombre_5-3);}.cls-4{fill:url(#Degradado_sin_nombre_5-4);}.cls-5{fill:url(#Degradado_sin_nombre_5-5);}.cls-6{fill:url(#Degradado_sin_nombre_5-6);}.cls-7{fill:url(#Degradado_sin_nombre_5-7);}</style><linearGradient id="Degradado_sin_nombre_5" x1="539.67" y1="669.21" x2="46.99" y2="671.61" gradientUnits="userSpaceOnUse"><stop offset="0" stop-color="#19a4c8"/><stop offset="1" stop-color="#873b99"/></linearGradient><linearGradient id="Degradado_sin_nombre_5-2" x1="539.68" y1="670.83" x2="47" y2="673.23" xlink:href="#Degradado_sin_nombre_5"/><linearGradient id="Degradado_sin_nombre_5-3" x1="539.68" y1="671.24" x2="47" y2="673.63" xlink:href="#Degradado_sin_nombre_5"/><linearGradient id="Degradado_sin_nombre_5-4" x1="539.69" y1="671.71" x2="47" y2="674.11" xlink:href="#Degradado_sin_nombre_5"/><linearGradient id="Degradado_sin_nombre_5-5" x1="539.69" y1="672.3" x2="47" y2="674.7" xlink:href="#Degradado_sin_nombre_5"/><linearGradient id="Degradado_sin_nombre_5-6" x1="539.69" y1="672.8" x2="47.01" y2="675.19" xlink:href="#Degradado_sin_nombre_5"/><linearGradient id="Degradado_sin_nombre_5-7" x1="539.68" y1="670.42" x2="46.99" y2="672.82" xlink:href="#Degradado_sin_nombre_5"/></defs><title>logo</title><path class="cls-1" d="M605,541.57H-100.37V689.51A109.68,109.68,0,0,0,9.19,799.07H724.44V661A119.54,119.54,0,0,0,605,541.57ZM709.3,783.93H9.19a94.52,94.52,0,0,1-94.42-94.42V556.71H605A104.38,104.38,0,0,1,709.3,661V783.93Z" transform="translate(100.37 -541.57)"/><path class="cls-2" d="M201.21,614.64q3.59,0,3.59,3.75v7.74a3.94,3.94,0,0,1-.9,2.58,3.48,3.48,0,0,1-2.85,1.09h-63v32.12h49.55a3.73,3.73,0,0,1,2.42.82,3.38,3.38,0,0,1,1,2.77v8a4,4,0,0,1-.86,2.5,3.08,3.08,0,0,1-2.58,1.09H138.07v38.45h63.3q3.59,0,3.59,3.67v8.05q0,3.43-3.44,3.44H126.35q-3.44,0-3.44-3.28V618.23q0-3.59,3.44-3.59h74.86Z" transform="translate(100.37 -541.57)"/><path class="cls-3" d="M289.9,640q-1.1-.7-3.6-2.73a47.75,47.75,0,0,0-6.13-4.14,52.46,52.46,0,0,0-8.17-3.79,27.87,27.87,0,0,0-9.77-1.68,33.71,33.71,0,0,0-10.63,1.49,21.84,21.84,0,0,0-7.35,3.94,15.54,15.54,0,0,0-4.26,5.55,15.21,15.21,0,0,0-1.37,6.21,10.11,10.11,0,0,0,2.89,7.35,25.17,25.17,0,0,0,7.66,5.16A77.92,77.92,0,0,0,260,661.25q6.06,1.76,12.35,3.71t12.35,4.38a46.64,46.64,0,0,1,10.82,6,28.69,28.69,0,0,1,7.66,8.6,23.85,23.85,0,0,1,2.89,12.11,32.36,32.36,0,0,1-3.4,14.89,34.5,34.5,0,0,1-9.3,11.41,43.23,43.23,0,0,1-13.87,7.31,55.2,55.2,0,0,1-17.11,2.58,54,54,0,0,1-12.07-1.37,55.52,55.52,0,0,1-11.49-4,54.3,54.3,0,0,1-10.28-6.37,49.27,49.27,0,0,1-8.52-8.6,3.77,3.77,0,0,1-1-2.5,3.21,3.21,0,0,1,1.37-2.34l6.17-5.16a3.57,3.57,0,0,1,2.58-1,3.37,3.37,0,0,1,2.27,1.37l1,1a36.44,36.44,0,0,0,7.46,6.37,54.53,54.53,0,0,0,8.36,4.45,47.79,47.79,0,0,0,8,2.62,30.37,30.37,0,0,0,6.49.86,40.16,40.16,0,0,0,9.77-1.25,31.85,31.85,0,0,0,9.14-3.83,22.3,22.3,0,0,0,6.8-6.53,16.19,16.19,0,0,0,2.66-9.26,11.27,11.27,0,0,0-2.62-7.54,23,23,0,0,0-7.07-5.39A63.26,63.26,0,0,0,271,679.69q-6-1.83-12.78-3.87a126.79,126.79,0,0,1-16.1-5.75,47.18,47.18,0,0,1-11.06-6.64,23,23,0,0,1-6.37-8.13,24.3,24.3,0,0,1-2-10.12,29.49,29.49,0,0,1,2.85-13,29.9,29.9,0,0,1,8.09-10.2,38.11,38.11,0,0,1,12.62-6.68,53.66,53.66,0,0,1,16.53-2.38A44.79,44.79,0,0,1,273,614.17a59,59,0,0,1,10.35,3.48,55.78,55.78,0,0,1,9.46,5.31,40.5,40.5,0,0,1,7.62,6.84,3.77,3.77,0,0,1,1.13,2.46,3.25,3.25,0,0,1-1.21,2.46L294.82,640a3.41,3.41,0,0,1-2.54,1.09A3.63,3.63,0,0,1,289.9,640Z" transform="translate(100.37 -541.57)"/><path class="cls-4" d="M402.75,614.64a4.12,4.12,0,0,1,2.54.86,3.48,3.48,0,0,1,1.29,2.58V626a4.08,4.08,0,0,1-.94,2.7,3.52,3.52,0,0,1-2.89,1.13H370.23v97.29a3.75,3.75,0,0,1-.93,2.5,3.32,3.32,0,0,1-2.66,1.09h-7.89a3.56,3.56,0,0,1-2.5-1,3.36,3.36,0,0,1-1.09-2.58V629.8H322.49a3.64,3.64,0,0,1-2.58-.94,3.74,3.74,0,0,1-1-2.89v-7.89a3.23,3.23,0,0,1,1-2.5,3.64,3.64,0,0,1,2.58-.94h80.26Z" transform="translate(100.37 -541.57)"/><path class="cls-5" d="M502.54,614.64q3.59,0,3.59,3.75v7.74a3.93,3.93,0,0,1-.9,2.58,3.48,3.48,0,0,1-2.85,1.09h-63v32.12h49.54a3.73,3.73,0,0,1,2.42.82,3.38,3.38,0,0,1,1,2.77v8a4,4,0,0,1-.86,2.5,3.09,3.09,0,0,1-2.58,1.09H439.4v38.45h63.3q3.59,0,3.59,3.67v8.05q0,3.43-3.44,3.44H427.67q-3.44,0-3.44-3.28V618.23q0-3.59,3.44-3.59h74.86Z" transform="translate(100.37 -541.57)"/><path class="cls-6" d="M524.65,618.39q0-3.75,3.44-3.75h45.09a36,36,0,0,1,14.53,2.93,37.43,37.43,0,0,1,11.72,8,37.05,37.05,0,0,1,10.71,26.22,36.06,36.06,0,0,1-1.52,10.51,37.47,37.47,0,0,1-4.26,9.34,36.42,36.42,0,0,1-6.56,7.7,37,37,0,0,1-8.52,5.67l20.63,42.28v1q0,2.42-2.89,2.43h-9.46q-2.42,0-3.75-2.89L575.05,688.4a10.8,10.8,0,0,1-1.37.08l-2.11,0q-1.37,0-3.63,0H539.81v38.68q0,3.43-3.59,3.44h-8.13q-3.44,0-3.44-3.44V618.39Zm70.49,33.21a21.15,21.15,0,0,0-1.68-8.28,22.83,22.83,0,0,0-4.61-7,22.47,22.47,0,0,0-7-4.88,20.72,20.72,0,0,0-8.71-1.84H539.81v44.07h33.68a20.66,20.66,0,0,0,8.59-1.8A21.63,21.63,0,0,0,589,667a22.67,22.67,0,0,0,4.53-7A21.73,21.73,0,0,0,595.13,651.6Z" transform="translate(100.37 -541.57)"/><path class="cls-7" d="M100.87,682.85v34.94a4,4,0,0,1-.4,1.76,3.23,3.23,0,0,1-1.33,1.37l-0.61.47a58,58,0,0,1-16.18,8.16,61.53,61.53,0,0,1-19.06,2.86,59.53,59.53,0,0,1-15.91-2.12,58.31,58.31,0,0,1-14.22-6,60,60,0,0,1-12-9.35,59.44,59.44,0,0,1-9.26-72.16,61.67,61.67,0,0,1,9.33-12.12,60.06,60.06,0,0,1,12-9.37,59.44,59.44,0,0,1,14.21-6.06,58.22,58.22,0,0,1,15.91-2.16A59.23,59.23,0,0,1,81.88,616a62.82,62.82,0,0,1,16.65,8.42,5.9,5.9,0,0,1,1.4,1.44,3,3,0,0,1,.54,1.67,2.85,2.85,0,0,1-.63,1.89l-4.14,6.87c-0.88,1.26-1.8,1.89-2.73,1.89a3.25,3.25,0,0,1-1.2-.29,6.81,6.81,0,0,1-1.53-.9A49.2,49.2,0,0,0,78,630.69a42.79,42.79,0,0,0-14.12-2.3A43.62,43.62,0,0,0,46,632.06a45.78,45.78,0,0,0-23.79,24.08,42.16,42.16,0,0,0-3.45,16.79,43.18,43.18,0,0,0,3.52,17.39A44.27,44.27,0,0,0,45.81,713.8a42.72,42.72,0,0,0,17.08,3.45,36.73,36.73,0,0,0,11.36-1.83c3.78-1.24,7.62-2.68,11.53-4.35V694.43H49.32a1.73,1.73,0,0,1-1.73-1.73V681.13a1.74,1.74,0,0,1,1.73-1.73H98.75a1.74,1.74,0,0,1,1.73,1.73v0.05A3.29,3.29,0,0,1,100.87,682.85Z" transform="translate(100.37 -541.57)"/></svg>